<?xml version="1.0" encoding="utf-8"?>
<!-- Generator: Adobe Illustrator 16.0.0, SVG Export Plug-In . SVG Version: 6.00 Build 0)  -->
<!DOCTYPE svg PUBLIC "-//W3C//DTD SVG 1.1//EN" "http://www.w3.org/Graphics/SVG/1.1/DTD/svg11.dtd">
<svg version="1.1" id="Layer_1" xmlns="http://www.w3.org/2000/svg" xmlns:xlink="http://www.w3.org/1999/xlink" x="0px" y="0px"
	 width="792px" height="612px" viewBox="0 0 792 612" enable-background="new 0 0 792 612" xml:space="preserve">
<g>
	<path fill="#9E3321" d="M85.031,253.335v46.6h62.359v5.423H85.031v57.275H79.1v-114.89h78.796v5.592H85.031z"/>
	<path fill="#9E3321" d="M164.673,362.633v-114.89h6.1v114.89H164.673z"/>
	<path fill="#9E3321" d="M258.548,306.714c13.557,4.065,20.335,13.161,20.335,27.282v28.637h-6.1v-28.129
		c0-16.268-10.959-24.401-32.875-24.401h-46.431v52.53h-6.1v-114.89h54.056c26.096,0,39.145,9.886,39.145,29.655
		C280.578,292.31,273.233,302.083,258.548,306.714z M241.772,253.335h-48.295v51.006h45.584c9.828,0,17.848-1.919,24.063-5.761
		c7.566-4.631,11.353-11.523,11.353-20.674C274.478,261.526,263.574,253.335,241.772,253.335z"/>
	<path fill="#9E3321" d="M343.615,363.819c-14.573,0-26.266-2.597-35.077-7.795c-10.62-6.438-15.929-16.492-15.929-30.163v-2.881
		h6.101v2.203c0,22.029,15.023,33.044,45.075,33.044c10.278,0,18.865-1.58,25.757-4.745c9.262-4.291,13.896-10.957,13.896-19.994
		c0-6.213-1.695-10.957-5.084-14.236c-2.824-2.822-7.515-5.193-14.064-7.116c-3.39-1.017-11.468-2.881-24.232-5.592
		c-14.348-3.05-24.062-5.873-29.146-8.473c-9.717-5.194-14.573-12.764-14.573-22.707c0-19.204,14.685-28.807,44.059-28.807
		c30.728,0,46.317,11.75,46.771,35.246h-6.102c-0.678-11.747-4.973-19.826-12.878-24.232c-6.215-3.614-15.479-5.422-27.791-5.422
		c-25.307,0-37.957,7.739-37.957,23.215c0,7.684,3.558,13.446,10.675,17.285c4.631,2.486,12.54,4.744,23.724,6.778
		c20.446,3.728,34.061,7.684,40.839,11.862c7.906,4.744,11.861,12.314,11.861,22.707c0,10.506-5.366,18.414-16.098,23.723
		C365.192,361.786,355.249,363.819,343.615,363.819z"/>
	<path fill="#9E3321" d="M445.796,253.335v109.298h-6.101V253.335h-44.058v-5.592h94.047v5.592H445.796z"/>
	<path fill="#F15B22" d="M589.323,362.633l-16.438-35.415h-59.817l-16.775,35.415h-12.54l55.242-114.89h9.49l53.21,114.89H589.323z
		 M543.74,264.18l-25.588,52.701h49.989L543.74,264.18z"/>
	<path fill="#F15B22" d="M602.536,362.633v-114.89h11.187v114.89H602.536z"/>
	<path fill="#F15B22" d="M713.021,348.229c-11.413,9.604-27.003,14.403-46.77,14.403h-41.01v-114.89h47.447
		c19.206,0,33.835,5.198,43.891,15.59c9.715,9.941,14.571,23.951,14.571,42.025C731.151,323.887,725.106,338.176,713.021,348.229z
		 M708.275,270.196c-7.794-8.075-19.715-12.116-35.753-12.116h-36.094v94.217h30.331c16.831,0,29.909-3.953,39.229-11.862
		c9.32-7.905,13.979-19.599,13.979-35.077C719.968,289.995,716.071,278.273,708.275,270.196z"/>
</g>
</svg>
